<?xml version="1.0" encoding="utf-8"?>
<!-- Generator: Adobe Illustrator 21.0.1, SVG Export Plug-In . SVG Version: 6.00 Build 0)  -->
<svg version="1.1" id="Layer_2_2_" xmlns="http://www.w3.org/2000/svg" xmlns:xlink="http://www.w3.org/1999/xlink" x="0px" y="0px"
	 viewBox="0 0 200 200" style="enable-background:new 0 0 200 200;" xml:space="preserve">
<style type="text/css">
	.st0{fill:#FFFFFF;}
	.st1{fill:#006341;}
	.st2{fill:none;}
</style>
<title>Starbucks</title>
<circle class="st0" cx="100" cy="99.9" r="95.9"/>
<path class="st1" d="M109.6,45.5c-0.8-0.2-4.9-0.8-9.6-0.8c-4.7,0-8.8,0.7-9.6,0.8c-0.5,0.1-0.7-0.4-0.3-0.7
	c0.3-0.2,9.9-7.6,9.9-7.6s9.6,7.3,9.9,7.6C110.3,45.1,110.1,45.5,109.6,45.5z M93,92.9c0,0-0.5,0.2-0.6,0.6c2,1.5,3.4,5.1,7.6,5.1
	c4.2,0,5.6-3.5,7.6-5.1c-0.1-0.5-0.6-0.6-0.6-0.6s-2.6,0.6-7,0.6S93,92.9,93,92.9z M100,87c-1.2,0-1.4-0.4-2.2-0.4
	c-0.8,0-2.2,0.6-2.5,1.2c0,0.3,0.1,0.5,0.3,0.8c1.7,0.3,2.5,1.2,4.4,1.2s2.7-0.9,4.4-1.2c0.2-0.2,0.3-0.5,0.3-0.8
	c-0.3-0.6-1.8-1.2-2.6-1.2C101.4,86.6,101.2,87,100,87z M195.7,105.1c-0.1,2.3-0.3,4.6-0.6,6.8c-10.9,1.8-14.7-7.9-25.8-7.4
	c0.7,2.4,1.2,4.8,1.6,7.2c9.2,0,12.9,8.6,23.1,7.3c-0.5,2.6-1.2,5.2-1.9,7.8c-8.1,0.8-10.9-7.2-20.2-7c0.1,1.3,0.1,2.7,0.1,4
	c0,0.7,0,1.5,0,2.2c8-0.1,10.5,7.3,18.1,6.9c-0.9,2.6-2,5.1-3.2,7.6c-5.4-0.3-7.3-7.3-15.6-6.7c-0.2,1.8-0.6,3.6-0.9,5.3
	c7.2-0.5,8.7,6.1,13.9,6.7c-1.3,2.4-2.7,4.7-4.2,7c-3.1-1.6-5.7-6.6-11.5-6.9c0.6-1.8,1.1-3.7,1.6-5.6c-5.1,0-11-2-15.9-6.5
	c1.6-9.1-12.5-18.4-12.5-25c0-7.2,3.7-11.2,3.7-21c0-7.2-3.5-15.1-8.8-20.5c-1-1-2.1-1.9-3.3-2.6c4.9,6,8.6,13.2,8.6,21.4
	c0,9.2-4.3,14-4.3,22.5c0,8.5,12.4,15.8,12.4,24.5c0,3.4-1.1,6.8-4.7,13.4c5.6,5.6,12.8,8.6,17.5,8.6c1.5,0,2.3-0.5,2.9-1.7
	c0.5-1,0.9-2.1,1.3-3.1c5,0.2,7.3,4.8,10.1,6.6c-1.5,2.1-3.1,4-4.8,6c-1.9-2.1-4.4-5.6-8.1-6.5c-0.7,1.3-1.4,2.5-2.1,3.8
	c3.2,0.9,5.3,4.1,7,6.2c-1.8,1.9-3.7,3.7-5.6,5.4c-1.2-1.9-3.1-4.3-5.3-5.6c-0.8,1.1-1.6,2.1-2.5,3.1c1.8,1.2,3.4,3.4,4.5,5.3
	c-2.3,1.8-4.6,3.5-7,5.1c-1.2-9.7-14.5-16.4-10.9-27.7c-1.2,2-2.6,4.5-2.6,7.5c0,8.2,8.7,14.7,9.4,22.8c-1.8,1.1-3.7,2.1-5.5,3.1
	c-0.3-8.9-9.5-18.7-9.5-26c0-8.2,10.7-16.4,10.7-26.1c0-9.7-12.4-16.4-12.4-24.8c0-8.5,5.3-13.4,5.3-24.2c0-8-3.8-16-9.6-21.2
	c-1-0.9-2.1-1.6-3.3-2.3c5.5,6.6,8.7,12.6,8.7,21.7c0,10.2-6,15.9-6,25.9c0,10,12.1,15.6,12.1,24.9s-11.3,17.2-11.3,26.8
	c0,8.7,10,17.4,10.1,27.8c-2.2,0.9-4.4,1.8-6.7,2.6c1.3-10.5-9.9-21.2-9.9-29.8c0-9.3,11.7-17.3,11.7-27.4
	c0-10.1-11.9-14.7-11.9-25.1c0-10.3,7.3-16,7.3-27.4c0-8.9-4.4-16.9-10.8-21.8c-0.1-0.1-0.3-0.2-0.4-0.3c-0.6-0.4-1.1,0.1-0.7,0.6
	c4.5,5.7,7,11.4,7,19.9c0,10.4-8.4,18.9-8.4,29c0,11.9,11.3,15.3,11.3,25.1c0,9.8-12.1,17.6-12.1,28c0,9.6,11.4,20.3,9.5,31.4
	c-2.3,0.6-4.6,1.1-7,1.5c2.1-13.8-9.1-23.8-9.1-32.8c0-9.8,12.5-18.5,12.5-28.1c0-9-9-12-10.2-21.2c-0.2-1.3-1.2-2.2-2.6-2
	c-1.8,0.3-4.2,1.5-7.8,1.5s-6-1.2-7.8-1.5c-1.4-0.2-2.4,0.7-2.6,2c-1.2,9.2-10.2,12.2-10.2,21.2c0,9.6,12.5,18.3,12.5,28.1
	c0,9.1-11.2,19-9.1,32.8c-2.4-0.4-4.7-0.9-7-1.5c-2-11.1,9.5-21.8,9.5-31.4c0-10.4-12.1-18.2-12.1-28c0-9.8,11.3-13.2,11.3-25.1
	c0-10.1-8.4-18.6-8.4-29c0-8.5,2.4-14.2,7-19.9c0.4-0.5-0.1-1.1-0.7-0.6c-0.1,0.1-0.3,0.2-0.4,0.3c-6.4,4.9-10.8,12.9-10.8,21.8
	c0,11.4,7.3,17.1,7.3,27.4c0,10.3-11.9,15-11.9,25.1c0,10.1,11.7,18.1,11.7,27.4c0,8.5-11.2,19.3-9.9,29.8c-2.3-0.8-4.5-1.7-6.7-2.6
	c0.2-10.3,10.1-19.1,10.1-27.8c0-9.6-11.3-17.5-11.3-26.8s12.1-14.9,12.1-24.9c0-10-6-15.7-6-25.9c0-9.1,3.2-15.1,8.7-21.7
	c-1.2,0.6-2.2,1.4-3.3,2.3c-5.8,5.1-9.6,13.2-9.6,21.2c0,10.9,5.3,15.8,5.3,24.2c0,8.5-12.4,15.2-12.4,24.8
	c0,9.7,10.7,17.9,10.7,26.1c0,7.3-9.2,17.1-9.5,26c-1.9-1-3.7-2-5.5-3.1c0.7-8.1,9.4-14.6,9.4-22.8c0-3-1.4-5.5-2.6-7.5
	c3.6,11.3-9.7,18-10.9,27.7c-2.4-1.6-4.8-3.3-7-5.1c1-1.8,2.6-4,4.5-5.3c-0.9-1-1.7-2.1-2.5-3.1c-2.1,1.3-4,3.7-5.3,5.6
	c-2-1.7-3.8-3.5-5.6-5.4c1.7-2.1,3.8-5.3,7-6.2c-0.7-1.2-1.4-2.5-2.1-3.8c-3.7,1-6.2,4.5-8.1,6.5c-1.7-1.9-3.3-3.9-4.8-6
	c2.8-1.8,5.1-6.4,10.1-6.6c0.4,1,0.9,2.1,1.3,3.1c0.5,1.2,1.4,1.7,2.9,1.7c4.7,0,11.9-3,17.5-8.6c-3.6-6.6-4.7-10-4.7-13.4
	c0-8.7,12.4-16.1,12.4-24.5s-4.3-13.3-4.3-22.5c0-8.3,3.7-15.4,8.6-21.4c-1.2,0.8-2.3,1.6-3.3,2.6c-5.3,5.4-8.8,13.2-8.8,20.5
	c0,9.8,3.7,13.8,3.7,21c0,6.7-14.1,15.9-12.5,25c-4.9,4.5-10.8,6.5-15.9,6.5c0.4,1.9,1,3.8,1.6,5.6c-5.8,0.3-8.4,5.2-11.5,6.9
	c-1.5-2.3-2.9-4.6-4.2-7c5.2-0.5,6.7-7.2,13.9-6.7c-0.4-1.7-0.7-3.5-0.9-5.3c-8.3-0.6-10.2,6.4-15.6,6.7c-1.2-2.5-2.2-5-3.2-7.6
	c7.6,0.3,10.2-7,18.1-6.9c0-0.7,0-1.5,0-2.2c0-1.4,0-2.7,0.1-4c-9.3-0.2-12.2,7.8-20.2,7c-0.7-2.5-1.4-5.1-1.9-7.8
	c10.2,1.3,13.9-7.3,23.1-7.3c0.4-2.5,1-4.9,1.6-7.2c-11.1-0.5-15,9.2-25.8,7.4c-0.3-2.2-0.5-4.5-0.6-6.8c12.6,1.4,17.3-9,28.8-7.7
	c1.1-2.7,2.3-5.4,3.8-8C22.5,86.9,17.6,99,4.2,97.1C5.6,45.5,48,4,100,4s94.4,41.5,95.8,93.1c-13.4,1.9-18.3-10.2-32.7-7.7
	c1.4,2.6,2.7,5.2,3.8,8C178.4,96.2,183.1,106.5,195.7,105.1z M58.8,64.9c-7.1-2.9-15.6-2.2-22.9,2.5c-1.1-6.8-4.8-12.8-10.1-16.5
	c-0.7-0.5-1.5,0-1.4,0.8c1.1,14.3-7.3,26.8-17.6,37.8c10.6,3.2,19.7-10.5,33.5-5.7C45.2,76.4,51.5,70,58.8,64.9z M100,56.2
	c-8.9,0-16.4,5-18.3,11.5c-0.2,0.5,0.1,0.8,0.6,0.6c1.6-0.7,3.4-1.1,5.4-1.1c3.6,0,6.8,1.3,8.7,3.7c0.8,2.8,0.9,6.8,0,9
	c-1.5-0.3-2-1.5-3.5-1.5c-1.5,0-2.6,1-5.1,1c-2.5,0-2.8-1.2-4.4-1.2c-1.9,0-2.3,2-2.3,4.2c0,9.9,9.1,23.6,18.8,23.6
	c9.7,0,18.8-13.6,18.8-23.6c0-2.2-0.5-4.1-2.5-4.4c-1,0.7-1.9,1.4-4.2,1.4c-2.5,0-3.2-1-4.6-1c-1.8,0-1.6,3.7-3.7,3.9
	c-1.4-3.3-1.5-7.6-0.3-11.5c1.9-2.3,5.1-3.7,8.7-3.7c2,0,3.8,0.3,5.4,1.1c0.6,0.3,0.8-0.1,0.6-0.6C116.4,61.3,108.9,56.2,100,56.2z
	 M114.2,70.5c-2.1,0-4.6,0.7-6.2,2.4c-0.2,0.5-0.2,1.2,0.1,1.7c3.9-1.3,7.3-1.4,8.9,0.5c0.9-0.8,1.2-1.5,1.2-2.4
	C118.1,71.4,116.8,70.5,114.2,70.5z M83,75c1.9-1.9,5.8-1.8,9.9-0.3c0.2-2-3.5-4.3-7.1-4.3c-2.6,0-3.9,0.9-3.9,2.2
	C81.9,73.5,82.2,74.2,83,75z M144.4,41.4c-7,0.5-13.1,2.9-18.1,6.9c2.1-5.9,4.8-11.1,8.1-16.2c-8.9,0.9-16.4,4.2-21.9,9.8l-4.3-11.2
	l9.5-8.4l-12.7-0.9L100,9.7l-5.1,11.8l-12.7,0.9l9.5,8.4L87.4,42c-5.5-5.6-12.9-8.9-21.9-9.8c3.4,5,6,10.2,8.1,16.2
	c-4.9-4-11-6.4-18.1-6.9c4.2,5.4,8,11.2,10.7,17.4c0.3,0.7,1,0.9,1.7,0.6c9.6-4.8,20.5-7.5,31.9-7.5s22.3,2.7,32,7.5
	c0.7,0.4,1.4,0.1,1.7-0.6C136.4,52.6,140.2,46.9,144.4,41.4z M159.7,83.8c13.8-4.8,22.8,8.9,33.5,5.7c-10.3-11-18.7-23.4-17.6-37.8
	c0.1-0.8-0.7-1.3-1.4-0.8c-5.3,3.6-8.9,9.7-10.1,16.5c-7.3-4.7-15.8-5.4-22.9-2.5C148.5,70,154.8,76.4,159.7,83.8z"/>
<rect x="151.8" y="194.9" class="st2" width="11.5" height="0.8"/>
<g>
	<path class="st1" d="M172.2,183h-4.9v13.1h-1.7V183h-4.9v-1.6h11.5V183L172.2,183z"/>
	<path class="st1" d="M174.3,181.4h2.6l5,11.6h0l5-11.6h2.6v14.7h-1.8v-12.4h0l-5.3,12.4h-1.1l-5.3-12.4h0v12.4h-1.7V181.4z"/>
</g>
</svg>
